# xmcd
#
# Track frame offsets:
#	150
#	17529
#	31814
#	48935
#	65138
#	80664
#	97637
#	112058
#	124549
#	138951
#	153446
#	168823
#	183686
#	197281
#	214269
#	242035
#
# Disc length: 3231 seconds
#
# Revision: 1
# Processed by: cddbd v1.5.2PL0 Copyright (c) Steve Scherf et al.
# Submitted via: audiograbber 1.83.01
#
DISCID=cd0c9d10
DTITLE=Micky Gilley - Chart Buster 90077
DYEAR=1900
DGENRE=
TTITLE0=Stand By Me
TTITLE1=A Room Full Of Roses
TTITLE2=A Headache Tommorrow ( are A Heartache tonight)
TTITLE3=Fool For Your Love
TTITLE4=You've Really Got A Hold On Me
TTITLE5=Talk To Me
TTITLE6=Don't The Girls All Get Pretter At Closing Time
TTITLE7=Thats All That Matters
TTITLE8=I Overlooked An Orchid
TTITLE9=True Love Ways
TTITLE10=Tears Of A Lonley
TTITLE11=You Don't Know Me
TTITLE12=City Lights
TTITLE13=Lonley Nights
TTITLE14=Put your dreams away
TTITLE15=Data
EXTD=
EXTT0=
EXTT1=
EXTT2=
EXTT3=
EXTT4=
EXTT5=
EXTT6=
EXTT7=
EXTT8=
EXTT9=
EXTT10=
EXTT11=
EXTT12=
EXTT13=
EXTT14=
EXTT15=
PLAYORDER=
